<?xml version="1.0" standalone="no"?>
<!DOCTYPE svg PUBLIC "-//W3C//DTD SVG 20010904//EN"
 "http://www.w3.org/TR/2001/REC-SVG-20010904/DTD/svg10.dtd">
<svg version="1.0" xmlns="http://www.w3.org/2000/svg"
 width="487.000000pt" height="487.000000pt" viewBox="0 0 487.000000 487.000000"
 preserveAspectRatio="xMidYMid meet">
<metadata>
Created by potrace 1.11, written by Peter Selinger 2001-2013
</metadata>
<g transform="translate(0.000000,487.000000) scale(0.100000,-0.100000)"
fill="#000000" stroke="none">
<path d="M2899 4866 c-2 -2 -40 -7 -84 -10 -89 -8 -115 -11 -230 -32 -44 -8
-93 -17 -110 -20 -141 -24 -424 -128 -595 -217 -63 -33 -125 -65 -137 -71 -13
-6 -23 -14 -23 -18 0 -5 -4 -8 -10 -8 -15 0 -174 -115 -254 -184 -458 -392
-728 -935 -800 -1606 -13 -119 -15 -569 -3 -630 3 -14 9 -52 12 -85 12 -98 14
-107 29 -185 59 -294 140 -518 273 -748 250 -434 647 -752 1148 -920 80 -27
189 -56 249 -68 12 -2 32 -6 46 -9 51 -11 76 -15 110 -20 19 -3 46 -7 60 -9
135 -27 750 -27 850 -1 8 2 40 7 70 10 53 5 86 10 140 20 14 3 43 8 65 11 22
3 43 8 46 10 4 2 24 6 45 10 101 16 375 106 411 136 8 6 8 18 2 41 -6 18 -33
122 -61 232 -28 110 -53 202 -54 204 -2 2 -52 -15 -111 -37 -101 -37 -202 -69
-248 -78 -11 -2 -31 -6 -45 -9 -52 -12 -177 -33 -230 -40 -30 -4 -66 -9 -80
-11 -73 -12 -454 -11 -550 2 -170 22 -174 23 -292 53 -590 152 -1001 563
-1167 1166 -34 123 -35 131 -56 265 -33 214 -38 578 -10 745 7 44 14 85 21
130 31 208 126 475 236 662 149 254 363 458 628 600 134 72 356 149 485 168
22 4 58 10 80 15 145 32 530 34 735 4 28 -4 120 -21 210 -39 8 -2 35 -9 60
-16 25 -7 50 -13 55 -15 29 -6 148 -50 202 -74 l61 -28 8 27 c4 14 8 31 10 36
6 26 115 387 123 409 9 22 6 26 -37 47 -147 69 -447 145 -652 164 -36 4 -76 9
-90 11 -28 6 -536 15 -541 10z"/>
<path d="M2999 4206 c-2 -2 -29 -7 -59 -10 -224 -26 -439 -88 -610 -177 -36
-18 -67 -34 -70 -34 -46 -11 -270 -183 -370 -285 -125 -127 -215 -254 -300
-425 -133 -267 -193 -533 -194 -845 0 -822 406 -1433 1112 -1669 121 -41 215
-61 384 -81 71 -8 452 -6 493 3 11 3 47 8 80 12 144 16 388 81 477 126 41 21
40 15 13 126 -8 35 -22 93 -31 130 -8 38 -18 75 -20 84 -4 14 -17 11 -99 -17
-97 -34 -284 -77 -390 -89 -93 -11 -302 -13 -385 -4 -418 46 -749 246 -958
581 -23 37 -42 69 -42 72 0 2 -15 37 -34 78 -46 98 -87 237 -101 344 -17 134
-17 164 2 165 10 0 405 1 878 2 l860 2 3 178 2 177 -883 0 -884 0 8 48 c54
333 178 587 390 793 184 179 456 307 709 334 30 3 65 8 78 11 31 6 244 5 317
-2 140 -13 364 -70 459 -115 22 -10 41 -19 42 -19 2 0 32 93 76 240 6 19 17
52 24 72 l14 37 -48 21 c-104 47 -277 96 -409 116 -21 3 -49 8 -63 11 -28 6
-465 14 -471 9z"/>
</g>
</svg>
